HIERARCHY
ROOT Hips
{
	OFFSET 0.000000 0.000000 0.000000
	CHANNELS 6 Xposition Yposition Zposition Zrotation Xrotation Yrotation
	JOINT RightUpLeg
	{
		OFFSET -9.711200 0.000000 0.000000
		CHANNELS 3 Zrotation Xrotation Yrotation
		JOINT RightLeg
		{
			OFFSET 0.000000 -42.071800 0.000000
			CHANNELS 3 Zrotation Xrotation Yrotation
			JOINT RightFoot
			{
				OFFSET 0.000000 -40.121000 0.000000
				CHANNELS 3 Zrotation Xrotation Yrotation
				JOINT RightToe
				{
					OFFSET 0.000000 -9.631400 3.100600
					CHANNELS 3 Zrotation Xrotation Yrotation
					JOINT RightToeEnd
					{
						OFFSET 0.000000 -4.048200 4.118000
						CHANNELS 3 Zrotation Xrotation Yrotation
						End Site
						{
						    OFFSET 0.000000 -3.505200 3.565600
						}
					}
				}
			}
		}
	}
	JOINT LeftUpLeg
	{
		OFFSET 9.711200 0.000000 0.000000
		CHANNELS 3 Zrotation Xrotation Yrotation
		JOINT LeftLeg
		{
			OFFSET 0.000000 -42.071800 0.000000
			CHANNELS 3 Zrotation Xrotation Yrotation
			JOINT LeftFoot
			{
				OFFSET 0.000000 -40.121000 0.000000
				CHANNELS 3 Zrotation Xrotation Yrotation
				JOINT LeftToe
				{
					OFFSET 0.000000 -9.631400 3.100600
					CHANNELS 3 Zrotation Xrotation Yrotation
					JOINT LeftToeEnd
					{
						OFFSET 0.000000 -4.048200 4.118000
						CHANNELS 3 Zrotation Xrotation Yrotation
						End Site
						{
						    OFFSET 0.000000 -3.505200 3.565600
						}
					}
				}
			}
		}
	}
	JOINT Spine
	{
		OFFSET 0.000000 14.595200 0.000000
		CHANNELS 3 Zrotation Xrotation Yrotation
		JOINT Spine1
		{
			OFFSET 0.000000 9.770300 0.000000
			CHANNELS 3 Zrotation Xrotation Yrotation
			JOINT Spine2
			{
				OFFSET 0.000000 14.330100 0.000000
				CHANNELS 3 Zrotation Xrotation Yrotation
				JOINT LeftShoulder
				{
					OFFSET 2.000000 14.330100 0.000000
					CHANNELS 3 Zrotation Xrotation Yrotation
					JOINT LeftArm
					{
						OFFSET 14.369100 0.000000 0.000000
						CHANNELS 3 Zrotation Xrotation Yrotation
						JOINT LeftForeArm
						{
							OFFSET 0.000000 -27.196400 0.000000
							CHANNELS 3 Zrotation Xrotation Yrotation
							JOINT LeftHand
							{
								OFFSET 0.000000 -24.849000 0.000000
								CHANNELS 3 Zrotation Xrotation Yrotation
								JOINT LeftFinger0
								{
									OFFSET 0.000000 -7.367300 0.000000
									CHANNELS 3 Zrotation Xrotation Yrotation
									End Site
									{
									    OFFSET 0.000000 -5.000000 0.000000
									}
								}
							}
						}
					}
				}
				JOINT RightShoulder
				{
					OFFSET -2.000000 14.330100 0.000000
					CHANNELS 3 Zrotation Xrotation Yrotation
					JOINT RightArm
					{
						OFFSET -14.369100 0.000000 0.000000
						CHANNELS 3 Zrotation Xrotation Yrotation
						JOINT RightForeArm
						{
							OFFSET 0.000000 -27.196400 0.000000
							CHANNELS 3 Zrotation Xrotation Yrotation
							JOINT RightHand
							{
								OFFSET 0.000000 -24.849000 0.000000
								CHANNELS 3 Zrotation Xrotation Yrotation
								JOINT RightFinger0
								{
									OFFSET 0.000000 -7.367300 0.000000
									CHANNELS 3 Zrotation Xrotation Yrotation
									End Site
									{
									    OFFSET 0.000000 -5.000000 0.000000
									}
								}
							}
						}
					}
				}
				JOINT Neck
				{
					OFFSET 0.000000 14.330100 0.000000
					CHANNELS 3 Zrotation Xrotation Yrotation
					JOINT Head
					{
						OFFSET 0.000000 8.944300 0.000000
						CHANNELS 3 Zrotation Xrotation Yrotation
						JOINT HeadTip
						{
							OFFSET 0.000000 10.000000 0.000000
							CHANNELS 3 Zrotation Xrotation Yrotation
							End Site
							{
							    OFFSET 0.000000 5.000000 0.000000
							}
						}
					}
				}
			}
		}
	}
}
MOTION
Frames:	12
Frame Time:	0.033332
-13.534500 88.136500 47.311100 -3.329154 -6.159536 -60.149147 -11.425829 -19.389787 -31.579437 -0.000000 5.433133 -0.000000 -3.635440 -36.853354 -26.167129 -0.000000 0.822419 0.000000 0.000000 -0.000000 -0.000000 -4.476679 0.016866 5.305491 0.000000 18.697234 0.000000 -10.132498 -57.887532 -17.587848 -0.000000 0.743364 -0.000000 -0.000000 0.000000 0.000000 -2.869334 9.193610 -3.606519 -0.000000 9.935180 0.000000 -0.000000 0.000000 0.000000 -9.601861 0.000000 -4.159808 48.140327 -8.339141 -47.828867 -0.000000 -88.042912 -0.000000 -12.274548 -3.316834 21.135758 -0.000000 0.000000 -0.000000 8.781963 0.000000 2.228997 -25.222122 -14.411313 31.847377 -0.000127 -39.855439 -0.000046 7.648714 12.044760 14.086320 0.000000 0.000000 -0.000000 -0.000000 0.000000 0.000000 -0.154380 39.237189 19.597279 0.000000 0.000000 -0.000000 
-15.336000 87.875700 48.110000 -3.348827 -6.565692 -61.148046 -10.836644 -19.727886 -29.088923 -0.000000 8.117603 0.000000 -5.066708 -36.307461 -27.588906 -0.000000 1.607958 -0.000000 -0.000000 -0.000000 0.000000 -4.778390 1.230344 5.673016 -0.000000 19.471629 -0.000000 -9.796117 -59.339046 -16.933719 -0.000000 0.328308 -0.000000 -0.000000 0.000000 -0.000000 -2.864353 9.096704 -4.358740 -0.000000 10.010424 0.000000 -0.000000 -0.000000 0.000000 -9.383545 0.000000 -3.871785 47.963998 -7.963552 -48.079914 0.000000 -88.221105 -0.000000 -11.810119 -3.215966 21.470209 -0.000000 -0.000000 -0.000000 8.924136 0.000000 1.854919 -25.847373 -12.998838 28.805357 -0.000138 -42.328583 -0.000054 7.276896 11.393143 11.169480 -0.000000 0.000000 0.000000 -0.000000 -0.000000 0.000000 -0.159199 39.540949 19.686106 -0.000000 0.000000 0.000000 
-17.246300 87.591200 48.864000 -3.346654 -7.045558 -61.633587 -10.325646 -19.553967 -27.285224 -0.000000 11.533905 -0.000000 -6.598404 -35.382896 -28.157625 -0.000000 1.695458 -0.000000 -0.000000 0.000000 -0.000000 -5.004775 2.503707 6.056292 -0.000000 20.223528 -0.000000 -10.534246 -60.511275 -17.338072 0.000000 -0.269114 -0.000000 0.000000 -0.000000 -0.000000 -2.762576 8.932480 -5.294721 0.000000 10.078554 0.000000 -0.000000 -0.000000 -0.000000 -9.184971 0.000000 -3.755435 47.952686 -7.535844 -47.865785 -0.000000 -88.415035 0.000000 -11.846086 -3.142842 21.274505 -0.000000 0.000000 0.000000 9.261114 0.000000 1.437464 -26.508251 -11.340059 25.720766 -0.000152 -45.071229 -0.000063 6.835875 10.834226 8.621219 -0.000000 0.000000 -0.000000 -0.000000 -0.000000 -0.000000 0.259291 39.761906 19.321717 0.000000 0.000000 -0.000000 
-19.199000 87.383300 49.507200 -3.309480 -7.033306 -61.474914 -9.765808 -18.954134 -26.242379 -0.000000 11.890317 0.000000 -9.000572 -32.812688 -28.844972 -0.000000 1.288654 -0.000000 0.000000 0.000000 -0.000000 -4.713030 3.365108 5.856574 -0.000000 21.192669 0.000000 -11.028561 -61.377426 -17.672409 -0.000000 -1.137755 -0.000000 0.000000 0.000000 -0.000000 -1.872743 8.550209 -6.446035 -0.000000 10.030189 0.000000 0.000000 0.000000 -0.000000 -9.535500 0.000000 -3.813095 48.345252 -7.302199 -47.528453 -0.000000 -88.424569 0.000000 -11.809079 -3.178665 21.043571 -0.000000 -0.000000 -0.000000 9.804723 -0.000000 0.985574 -27.507457 -9.646958 23.145823 -0.000167 -47.624726 -0.000074 6.112929 9.900601 5.333930 -0.000000 0.000000 -0.000000 0.000000 0.000000 -0.000000 0.821797 40.113802 18.469149 -0.000000 0.000000 -0.000000 
-21.120600 87.408500 50.014900 -3.621479 -6.419361 -61.369171 -8.969504 -18.395675 -24.593457 0.000000 12.711064 -0.000000 -10.396419 -31.038322 -29.397739 -0.000000 2.203663 0.000000 -0.000000 -0.000000 -0.000000 -3.729038 3.769321 5.706437 -0.000000 22.832142 0.000000 -9.777147 -61.473785 -16.521810 0.000000 -2.284176 -0.000000 -0.000000 0.000000 -0.000000 0.030735 8.390610 -7.389291 0.000000 9.974570 -0.000000 0.000000 0.000000 0.000000 -10.463829 -0.000000 -3.911863 48.900292 -7.312747 -47.193105 -0.000000 -88.106576 -0.000000 -11.953810 -3.306890 21.525132 0.000000 0.000000 -0.000000 10.274082 -0.000000 0.740050 -28.607463 -8.214730 20.746480 -0.000180 -49.755223 -0.000083 5.287867 9.192977 2.099792 -0.000000 -0.000000 0.000000 0.000000 0.000000 0.000000 1.221348 40.334321 17.630019 -0.000000 0.000000 -0.000000 
-22.966700 87.605600 50.478600 -3.895886 -5.819908 -61.655979 -8.344185 -18.423287 -23.498582 -0.000000 15.015592 0.000000 -10.629356 -31.833393 -29.155934 0.000000 2.714594 0.000000 -0.000000 0.000000 0.000000 -2.697439 3.549854 5.887649 -0.000000 25.339905 0.000000 -8.365332 -60.009759 -15.463998 0.000000 -4.660123 -0.000000 -0.000000 0.000000 -0.000000 1.877178 8.393755 -7.904521 -0.000000 9.905068 -0.000000 -0.000000 0.000000 0.000000 -11.337898 0.000000 -4.061402 49.193641 -7.230861 -47.064459 -0.000000 -87.774083 -0.000000 -11.354871 -3.202508 22.911146 -0.000000 0.000000 -0.000000 10.294507 0.000000 0.638081 -29.199304 -7.064611 18.406117 -0.000192 -51.617830 -0.000093 5.311369 9.202984 -0.327040 0.000000 0.000000 -0.000000 -0.000000 0.000000 0.000000 1.818917 40.341404 16.689967 -0.000000 0.000000 0.000000 
-24.790500 87.855600 50.816400 -4.019490 -5.700057 -62.358020 -7.767733 -18.231531 -21.800239 -0.000000 16.698286 -0.000000 -11.279025 -32.840924 -29.388951 -0.000000 3.730721 -0.000000 -0.000000 -0.000000 -0.000000 -1.769187 2.803858 6.712458 -0.000000 28.776153 0.000000 -9.058329 -56.898376 -16.455581 -0.000000 -7.836904 0.000000 -0.000000 0.000000 -0.000000 2.674814 8.604012 -8.181412 0.000000 9.899580 -0.000000 0.000000 -0.000000 -0.000000 -11.596231 -0.000000 -4.061670 49.067545 -7.115851 -46.625578 0.000000 -87.516953 0.000000 -12.098327 -3.250436 22.096254 -0.000000 0.000000 -0.000000 10.120645 -0.000000 0.669219 -29.329041 -6.847277 16.744144 -0.000201 -52.844734 -0.000100 5.574622 8.955152 -2.391164 -0.000000 0.000000 0.000000 0.000000 -0.000000 -0.000000 2.922987 40.152948 15.884530 -0.000000 0.000000 -0.000000 
-26.635700 88.085200 51.023200 -4.106547 -5.607613 -63.019210 -6.983079 -17.487435 -21.240146 -0.000000 17.238112 0.000000 -12.298779 -33.944304 -29.112529 -0.000000 4.460186 -0.000000 0.000000 -0.000000 -0.000000 -0.355821 1.395886 8.342922 -0.000000 33.188347 -0.000000 -11.193378 -52.424012 -19.078083 0.000000 -10.799729 -0.000000 -0.000000 0.000000 -0.000000 3.120174 8.681689 -8.527589 0.000000 9.943940 0.000000 0.000000 -0.000000 -0.000000 -11.653925 0.000000 -4.107929 48.857454 -6.908157 -46.327737 0.000000 -87.585207 -0.000000 -12.517027 -3.567408 21.586302 0.000000 0.000000 0.000000 9.757809 -0.000000 0.812156 -29.345881 -7.495568 15.268458 -0.000209 -53.936823 -0.000106 5.956408 8.980630 -2.168733 0.000000 -0.000000 -0.000000 0.000000 -0.000000 -0.000000 3.983249 40.126056 15.032030 0.000000 -0.000000 -0.000000 
-28.407600 88.262700 51.196100 -4.171180 -5.367851 -64.056127 -6.109672 -16.792983 -20.768624 -0.000000 17.674850 0.000000 -12.511616 -35.409374 -28.667689 -0.000000 4.193676 -0.000000 -0.000000 0.000000 -0.000000 1.379508 -0.659663 10.464250 0.000000 38.317851 -0.000000 -11.865642 -46.887770 -20.679809 -0.000000 -13.371124 -0.000000 -0.000000 -0.000000 -0.000000 3.680398 8.680256 -8.303665 0.000000 9.892277 -0.000000 -0.000000 0.000000 -0.000000 -11.866335 -0.000000 -4.171727 48.718837 -6.952189 -46.250555 -0.000000 -87.751133 -0.000000 -12.664894 -3.573987 21.057413 -0.000000 -0.000000 0.000000 9.155721 0.000000 0.879681 -29.810191 -8.887515 13.857255 -0.000222 -55.639982 -0.000117 6.144353 9.240560 -1.384118 0.000000 -0.000000 -0.000000 -0.000000 0.000000 -0.000000 4.543973 40.243202 14.306482 0.000000 0.000000 0.000000 
-30.156900 88.413400 51.329600 -4.543228 -4.962900 -65.479429 -4.845136 -15.774718 -19.590462 -0.000000 17.789493 -0.000000 -12.094590 -36.804207 -28.496193 0.000000 3.487280 0.000000 0.000000 -0.000000 -0.000000 3.517730 -2.725966 12.622313 -0.000000 43.757397 0.000000 -12.207026 -41.730156 -21.239265 -0.000000 -12.639730 -0.000000 -0.000000 -0.000000 -0.000000 4.548415 8.969563 -7.662494 0.000000 9.763243 0.000000 0.000000 0.000000 -0.000000 -12.133916 -0.000000 -4.222213 48.507140 -7.148200 -45.992593 -0.000000 -87.695884 -0.000000 -13.440547 -3.498620 20.166095 0.000000 0.000000 0.000000 8.598990 0.000000 1.029838 -30.890349 -10.725089 11.761522 -0.000249 -58.565244 -0.000139 5.551172 9.419969 -0.467599 -0.000000 -0.000000 -0.000000 0.000000 0.000000 -0.000000 4.470677 40.367750 13.978169 0.000000 -0.000000 0.000000 
-31.850500 88.535700 51.423800 -4.809670 -4.644362 -66.897458 -3.699713 -14.796888 -18.452923 -0.000000 17.838786 -0.000000 -12.097827 -38.155713 -28.345964 -0.000000 2.904657 -0.000000 -0.000000 -0.000000 -0.000000 5.349430 -5.007007 13.849852 0.000000 49.122830 -0.000000 -12.797435 -37.848618 -20.359132 -0.000000 -8.206755 0.000000 -0.000000 -0.000000 -0.000000 5.186384 9.193968 -7.102126 0.000000 9.661674 -0.000000 0.000000 0.000000 -0.000000 -12.329087 0.000000 -4.304430 48.292563 -7.145852 -45.629305 -0.000000 -87.599735 0.000000 -13.472539 -3.546626 20.295363 0.000000 0.000000 0.000000 8.216505 0.000000 1.173185 -32.369354 -13.111653 8.993229 -0.000292 -62.523585 -0.000177 4.879467 9.410675 -0.196888 -0.000000 -0.000000 -0.000000 0.000000 0.000000 -0.000000 4.048840 40.475411 14.264169 -0.000000 -0.000000 -0.000000 
-33.512600 88.716300 51.476500 -4.958091 -4.473786 -68.218010 -2.725398 -13.623778 -17.508956 -0.000000 17.444454 -0.000000 -12.122561 -39.316935 -28.099410 -0.000000 2.452193 0.000000 -0.000000 -0.000000 -0.000000 6.625348 -7.387009 14.463987 -0.000000 53.539760 0.000000 -13.132051 -38.491153 -21.792941 -0.000000 0.533875 -0.000000 -0.000000 0.000000 -0.000000 5.540802 9.346067 -6.698807 -0.000000 9.609116 0.000000 -0.000000 0.000000 0.000000 -12.691800 0.000000 -4.478984 48.372479 -6.837819 -45.313974 -0.000000 -87.464907 -0.000000 -13.748034 -3.763794 20.360894 0.000000 0.000000 -0.000000 7.792646 -0.000000 1.372778 -33.636022 -15.775422 5.236972 -0.000365 -67.358663 -0.000243 3.926342 9.453747 0.374631 -0.000000 0.000000 -0.000000 -0.000000 0.000000 0.000000 3.582608 40.669851 14.841005 -0.000000 0.000000 -0.000000 
